# xmcd CD database file
#
# Track frame offsets:
#	150
#	15572
#	39212
#	57365
#	79327
#	96460
#	122377
#	140030
#	161257
#	180607
#	203847
#	226492
#
# Disc length: 3232 seconds
#
# Revision: 0
# Processed by: cddbd v1.5.1PL0 Copyright (c) Steve Scherf et al.
# Submitted via: CDex 1.50
#
DISCID=980c9e0c
DTITLE=DC Bellamy and America's Most Wanted - Water To Wine
DYEAR=2000
DGENRE=Blues
TTITLE0=Make Love
TTITLE1=Just Foolin' Yourself
TTITLE2=Water To Wine
TTITLE3=Out Of The Safety Zone
TTITLE4=Give Me What I'm Gettin'
TTITLE5=I Ain't Gettin' What I Used To Get
TTITLE6=Next Door Neighbor's Woman
TTITLE7=Dimples
TTITLE8=I Won't Be Around You
TTITLE9=Hitch Hike
TTITLE10=I Can't Leavy You Alone
TTITLE11=If You See Kay
EXTD=YEAR: 2000
EXTT0=
EXTT1=
EXTT2=
EXTT3=
EXTT4=
EXTT5=
EXTT6=
EXTT7=
EXTT8=
EXTT9=
EXTT10=
EXTT11=
PLAYORDER=
